<svg width="30" height="30" viewBox="0 0 30 30" fill="none" xmlns="http://www.w3.org/2000/svg">
<path d="M15 10.6391L7.82172 17.2652C7.4159 17.6398 7.39059 18.2725 7.7652 18.6783C8.1398 19.0841 8.77246 19.1094 9.17828 18.7348L15 13.3609L20.8217 18.7348C21.2275 19.1094 21.8602 19.0841 22.2348 18.6783C22.6094 18.2725 22.5841 17.6398 22.1783 17.2652L15 10.6391Z" fill="#383838"/>
<path fill-rule="evenodd" clip-rule="evenodd" d="M30 15C30 23.2843 23.2843 30 15 30C6.71573 30 0 23.2843 0 15C0 6.71573 6.71573 0 15 0C23.2843 0 30 6.71573 30 15ZM28 15C28 22.1797 22.1797 28 15 28C7.8203 28 2 22.1797 2 15C2 7.8203 7.8203 2 15 2C22.1797 2 28 7.8203 28 15Z" fill="#383838"/>
</svg>
